<svg width="580" height="400" xmlns="http://www.w3.org/2000/svg">
 <!-- Created with Method Draw - http://github.com/duopixel/Method-Draw/ -->
 <g>
  <title>background</title>
  <rect fill="#fff" id="canvas_background" height="402" width="582" y="-1" x="-1"/>
  <g display="none" overflow="visible" y="0" x="0" height="100%" width="100%" id="canvasGrid">
   <rect fill="url(#gridpattern)" stroke-width="0" y="0" x="0" height="100%" width="100%"/>
  </g>
 </g>
 <g>
  <title>Layer 1</title>
  <path d="m99.5,80c1,0 3,0 4,0c6,0 9.958473,0.499237 19,1c3.993881,0.221199 6,0 13,0c3,0 6,0 9,0c2,0 5,0 8,0c2,0 4,0 9,0c2,0 4,0 7,0c5,0 9,0 16,0c3,0 5,0 7,0c1,0 2,0 3,0l2,0l2,0l1,0" id="svg_1" stroke-width="1.5" stroke="#000" fill="none"/>
  <path d="m149.5,88c0,2 0,3 0,5c0,4 0,6 0,8c0,3 0.496231,4.907784 1,9c0.366547,2.977524 0,5 0,13c0,5 0,10 0,14c0,4 0,6 0,9c0,1 1,3 1,5c0,2 0,4 0,5c0,2 0,3 0,9c0,1 -0.679642,5.025818 -1,7c-0.506546,3.121445 -1.337494,6.310013 -3,9c-1.487,2.406006 -2.877655,5.06601 -4,7c-1.809723,3.118484 -3,5 -7,9c-1,1 -1.881516,2.190277 -5,4c-1.93399,1.122345 -5,2 -8,2c-4,0 -5.228363,1.148056 -8,0c-1.306564,-0.541199 -8.232964,-3.589722 -12,-6c-5.393578,-3.450989 -13.477371,-11.632431 -18,-18c-3.376488,-4.753876 -5.824432,-6.097885 -7,-8c-0.525734,-0.850647 -1,-1 -1,-2l1,-2l1,-1" id="svg_2" stroke-width="1.5" stroke="#000" fill="none"/>
  <path d="m335.5,80c0,3 0,10 0,18c0,9 0,23 0,31c0,10 0,23 0,35c0,12 0,22 0,29c0,4 0,8 0,10l0,2" id="svg_3" stroke-width="1.5" stroke="#000" fill="none"/>
  <path d="m279.5,76c2,0 5,0 13,0c8,0 18.060791,-1.512756 28,-3c10.085754,-1.509171 15.921295,-3.998627 35,-5c8.98764,-0.471733 17,0 29,0c9,0 15,0 22,0c8,0 14,-1 16,-1l2,0" id="svg_5" stroke-width="1.5" stroke="#000" fill="none"/>
 </g>
</svg>